PathFileType	4	(X/Y/Z)	58_1_24_p0_0-190.trc
DataRate	CameraRate	NumFrames	NumMarkers	Units	OrigDataRate	OrigDataStartFrame	OrigNumFrames
54.0	54.0	5	27	m	54.0	71	191
Frame#	Time	RHip			RKnee			RAnkle			RBigToe			RSmallToe			RHeel			LHip			LKnee			LAnkle			LBigToe			LSmallToe			LHeel			Neck			Head			Nose			RShoulder			RElbow			RWrist			RThumb			RIndex			RPinky			LShoulder			LElbow			LWrist			LThumb			LIndex			LPinky			
		X1	Y1	Z1	X2	Y2	Z2	X3	Y3	Z3	X4	Y4	Z4	X5	Y5	Z5	X6	Y6	Z6	X7	Y7	Z7	X8	Y8	Z8	X9	Y9	Z9	X10	Y10	Z10	X11	Y11	Z11	X12	Y12	Z12	X13	Y13	Z13	X14	Y14	Z14	X15	Y15	Z15	X16	Y16	Z16	X17	Y17	Z17	X18	Y18	Z18	X19	Y19	Z19	X20	Y20	Z20	X21	Y21	Z21	X22	Y22	Z22	X23	Y23	Z23	X24	Y24	Z24	X25	Y25	Z25	X26	Y26	Z26	X27	Y27	Z27	
71	1.3148148148148149	0.34238107192501005	0.5203689305726923	1.062305600184325	0.32425576702171827	0.5936254686532058	1.5020958516016178	0.33105949637739324	0.7313413306043985	1.9139637655451003	0.28982696756824156	0.5753656709561484	1.9613808279793956	0.34857400302074865	0.6105646713999852	1.961169316381843	0.3027179094394927	0.8356587072642007	1.9782801325628945	0.14947956005909188	0.528644963747924	1.0749409548627633	0.1611399891467372	0.5786725666127099	1.4697297763787336	0.13633847263963214	0.7280368241866231	1.8957676235116432	0.12637953961914028	0.5856016828732719	1.9557841471573154	0.0798163868942877	0.6126073791872689	1.9534428806327646	0.14812707442021528	0.794315184414348	1.946158276084152	0.2326158040333679	0.3904554377096791	0.5666274941364897	0.20779121828949818	0.27932151054301363	0.3407621571041593	0.21175202216983227	0.260684898728417	0.45848842847003934	0.37977317422185974	0.4083531715523517	0.6262075569465213	0.41966232769223416	0.45737959879891155	0.9120166000332302	0.37709569125540227	0.446080866764943	1.1463143379484724	0.3150699765858422	0.4192935990552151	1.2368196640447497	0.3299703776362202	0.4116711310379028	1.2810628429485644	0.3651623191183163	0.48130561329340354	1.3036339974832336	0.07264220688524482	0.4193801420269415	0.6348482520440893	0.05459978098972964	0.45918807276991636	0.917246146735316	0.09919889124978973	0.39072239381240226	1.1322981490104571	0.16492928854773842	0.4618892891471022	1.215133811052444	0.15650076772638605	0.45954590570899073	1.258288284799694	0.11402926666138923	0.46043383240348884	1.277663603741726
72	1.3333333333333333	0.34231892963608235	0.5199723627844524	1.062285371409803	0.32563462160651824	0.5903500858811102	1.5018210191403318	0.332394794869117	0.7276162387973085	1.9124643450806156	0.28962410446764364	0.5748926197643476	1.9610639331836441	0.34875595282338356	0.6080135651411617	1.964754629323824	0.3030655541100333	0.8337773258045443	1.9813673219710912	0.15042608949763564	0.5295125637137944	1.0760011896326493	0.16230511684062573	0.5796509215770029	1.4790427722384676	0.1365856749837041	0.7272513195143396	1.8956748447401017	0.12645664786698502	0.5855930931506506	1.9554742164456593	0.07973506793048589	0.6125913932046048	1.9532901692431879	0.14832562909376784	0.7936647501387646	1.9460781107705418	0.22881914350025526	0.4034412955980831	0.5667554685726756	0.20424975566522086	0.277910975992814	0.34114975320428537	0.21199285828055706	0.26226862517262917	0.4621225768959214	0.38001851068351916	0.40925407845727446	0.6263361464380883	0.41704977007270144	0.47458944466801634	0.9173525714390772	0.3810937198185343	0.43134356008770525	1.1398881159027408	0.31488915453480665	0.42049315280705574	1.2337438090031172	0.3261408556719852	0.41125592165004365	1.281008486158015	0.3652027676846088	0.48111375137850937	1.3034246017186717	0.07545437246706171	0.43141987195508485	0.6346902454050345	0.054637859612995957	0.4580311662586467	0.9171871263708522	0.09924762371906555	0.39060937944720914	1.1321322627513255	0.1719266216580426	0.4751969429666935	1.2174886837218422	0.15684239666879746	0.4579664612823488	1.261505022232383	0.11469262237508986	0.4587302500834353	1.2816260065706162
73	1.3518518518518519	0.34185453634229646	0.5213121162166913	1.0662967818446	0.3240271473984006	0.5933004599631515	1.5113503153976253	0.33241871513428034	0.7276739496035955	1.9124439847946448	0.2897067274690946	0.5752251648076563	1.961330008761498	0.34880379399951933	0.6082828532606283	1.9649593724541312	0.30275473283120813	0.8356119050398151	1.977868108268694	0.15326082940951125	0.515685825660173	1.0761599859327144	0.16075136486655195	0.5783613521534379	1.4781990023151794	0.13646062843148846	0.7276486690272926	1.8957306082730254	0.12640481281859184	0.5855024642079696	1.9554564769224483	0.07962264915307568	0.6128744462277816	1.9532644270900617	0.1484433569672562	0.7938052225737962	1.9462028151320103	0.2288699876944265	0.40359121839290807	0.5668626595653495	0.2046052017692986	0.27736823065370314	0.3444901232360927	0.21585816523058965	0.2632819139877873	0.4620474498601552	0.38014195516898397	0.4095748081472064	0.6263761903142016	0.4170981459871909	0.4752658076296148	0.9175025940745367	0.380629267687802	0.4324600664465924	1.1436865957844249	0.315137990367307	0.41961610143794803	1.2374951212621406	0.32991017841355047	0.4117681232136252	1.2810341302604797	0.3650694035364352	0.4812486453034242	1.3036480155410757	0.07546191440788073	0.43156015247175	0.6346525464869258	0.05461727195807747	0.45803345346314106	0.9171710355283437	0.09922338357357492	0.39043843436391096	1.1319736828928173	0.16766002369001126	0.4739258336401111	1.2176668685111665	0.15662668550735923	0.45827728322581324	1.2617946233928108	0.11152556291060894	0.44830288100737214	1.2744860749324503
74	1.3703703703703705	0.3457627872854965	0.5019108894230204	1.0516347438857032	0.333528497447784	0.6081804657917935	1.5011706072799975	0.33218976589383675	0.729565005759414	1.9087785480146744	0.289678291092156	0.574542294727609	1.9610738951043793	0.34838885887820503	0.6087771437448333	1.960793406531274	0.3039393938700694	0.8388512687872882	1.9830264470110743	0.15468000199481213	0.5136798797039405	1.0683542119615854	0.1612554427586535	0.5784291228892998	1.469692006987849	0.13632729844935662	0.7271955194846574	1.895364242782784	0.1299493355443033	0.5719228786793019	1.9531022804718685	0.07964994775266204	0.6126763098901717	1.953213724631629	0.1487085721371513	0.7945075856254434	1.9466094251353239	0.2363266565943013	0.41646408118606854	0.5663712322693729	0.21572163077136716	0.29209290012380995	0.33975024984556534	0.22036281059697163	0.2632506415294406	0.4548172550322364	0.38463749945299125	0.4219199561120316	0.6263980856925645	0.42554141408383406	0.4894051047767143	0.9184661177438954	0.38939974055810145	0.44376287100976997	1.149216476797728	0.3151474432144154	0.4204647973250355	1.2339886444031574	0.32988445256776394	0.4117152136123683	1.2806988930595655	0.3650613180864396	0.48121278784590243	1.3038462945602007	0.07845543959705388	0.4438318746800432	0.6342883074736295	0.05444244693027858	0.4597946559318327	0.9134087110683379	0.09989843278128625	0.3893371250081057	1.1283722394499998	0.16769024977660033	0.4732562849008556	1.2172702156616848	0.15682314691614638	0.4586309217709951	1.2576384887003988	0.11131067824148295	0.44583942752505495	1.2699097324738724
75	1.3888888888888888	0.34231939285998797	0.5168634588652588	1.0541603654022527	0.32526806868818436	0.6218406605672541	1.5049775348957783	0.3321499842849309	0.7297629850371727	1.9088806573582695	0.288439584624136	0.5758287445467407	1.9659774159217467	0.3482416557629982	0.6059436131883424	1.9640586895536194	0.3038985000766973	0.8389367910615122	1.9833731247537365	0.1543293418247284	0.5148966865330116	1.0645662639941458	0.15756359464463982	0.5923511327589747	1.4699444367131	0.13643027690100853	0.7277629763892897	1.8957297728744875	0.12998950710752566	0.571984200941255	1.9532422641842266	0.07975265746632132	0.6128453982781928	1.9534543756671106	0.14895779674865456	0.7949377023407355	1.9469291053088142	0.23641301794441283	0.4165026691127187	0.5591752961606367	0.21620802757348495	0.29109315598810365	0.3365053719507146	0.22069684403749	0.26338762826788226	0.45464433867149967	0.38428093401870966	0.4205379960774573	0.6231306130294585	0.4243146843809871	0.4899082334445449	0.9145894807274465	0.3894818171423352	0.4439812910656659	1.1490976341957677	0.3152187795949305	0.42024500872730075	1.233909172766127	0.32979966806114347	0.41125650933655833	1.280413934195487	0.3651277001809797	0.4813129172643278	1.303590704166919	0.07853636011370552	0.44403268052257544	0.6341038537000311	0.05430851949120086	0.4601072731086213	0.9131772689964891	0.09992600532631261	0.38927446661169957	1.1283125424699432	0.16763094459230196	0.47348643224199644	1.2171455190957863	0.1577384539597709	0.4572534214825775	1.2532437907743383	0.1199455660795727	0.4353446871701957	1.26745489579271
